<svg width="64" height="69" viewBox="0 0 64 69" fill="none" xmlns="http://www.w3.org/2000/svg">
<path d="M37.1366 26.499C31.8855 26.499 29.6663 28.8609 26.0093 28.8609C22.2598 28.8609 19.3998 26.5162 14.8493 26.5162C10.3953 26.5162 5.64558 29.0794 2.62932 33.4459C-1.60595 39.6036 -0.887048 51.2007 5.97247 61.0804C8.42612 64.6171 11.7028 68.5834 16.0006 68.6264H16.0788C19.8139 68.6264 20.9235 66.321 26.064 66.294H26.1421C31.2057 66.294 32.2215 68.6129 35.941 68.6129H36.0192C40.317 68.5699 43.7695 64.1751 46.2232 60.6519C47.9892 58.1182 48.6455 56.8464 50 53.98C40.0773 50.4297 38.4832 37.1705 48.2965 32.087C45.3011 28.5515 41.0919 26.5039 37.1236 26.5039L37.1366 26.499Z" fill="#A3BAE3"/>
<path d="M25.1637 0.626402C22.4766 2.23553 23.5279 12.2404 22.7505 15.3956C22.044 18.2561 24.5476 23.8522 26.5654 26.4046L26.7877 26.2901C29.7471 24.7658 31.9108 21.5262 32.5714 18.4628C33.2206 15.5366 33.0175 11.9681 31.0111 9.23313L25.1637 0.626402Z" fill="white"/>
<path d="M53.3358 50.8777C51.7625 51.0597 50.3667 50.8601 49.1484 50.2789C47.9363 49.6898 46.9538 48.799 46.201 47.6063C45.4482 46.4136 44.9775 45.0023 44.789 43.3726C44.598 41.7217 44.7399 40.2288 45.2147 38.8941C45.6886 37.5524 46.4488 36.4599 47.4952 35.6168C48.5416 34.7736 49.8303 34.2635 51.3613 34.0864C52.596 33.9436 53.7231 34.0456 54.7427 34.3923C55.7615 34.7321 56.6146 35.2768 57.3019 36.0267C57.9963 36.7757 58.4631 37.6905 58.7025 38.771L55.6229 39.1272C55.3654 38.3849 54.9015 37.7736 54.2311 37.2935C53.5678 36.8126 52.7316 36.6304 51.7227 36.7471C50.8408 36.8492 50.0952 37.1713 49.4859 37.7137C48.8828 38.2482 48.4472 38.9635 48.1791 39.8596C47.9101 40.7487 47.8426 41.7717 47.9764 42.9288C48.1135 44.1141 48.4118 45.1163 48.8712 45.9354C49.3305 46.7545 49.9156 47.3625 50.6265 47.7593C51.3443 48.1553 52.1513 48.3014 53.0473 48.1978C53.647 48.1284 54.1776 47.9562 54.6391 47.6812C55.1068 47.3983 55.4824 47.0295 55.7659 46.5749C56.0564 46.1195 56.2348 45.5912 56.3011 44.9901L59.3807 44.6339C59.3894 45.6982 59.1558 46.6761 58.6798 47.5677C58.2038 48.4593 57.5134 49.1969 56.6086 49.7806C55.7108 50.3635 54.6199 50.7292 53.3358 50.8777Z" fill="url(#paint0_linear_4_23)"/>
<defs>
<linearGradient id="paint0_linear_4_23" x1="49.9317" y1="21.7456" x2="54.4131" y2="60.4873" gradientUnits="userSpaceOnUse">
<stop offset="0.530513" stop-color="#F4F4F4"/>
<stop offset="0.761309" stop-color="white" stop-opacity="0"/>
</linearGradient>
</defs>
</svg>
