<svg width="75" height="75" viewBox="0 0 75 75" fill="none" xmlns="http://www.w3.org/2000/svg">
<circle cx="37.5" cy="37.5" r="37.5" fill="#F9FAFC"/>
<path fill-rule="evenodd" clip-rule="evenodd" d="M23.5742 30.5068V27.0254C23.5742 25.1224 25.1224 23.5742 27.0254 23.5742H30.5068C30.9415 23.5742 31.2939 23.2218 31.2939 22.7871C31.2939 22.3524 30.9415 22 30.5068 22H27.0254C24.2544 22 22 24.2544 22 27.0254V30.5068C22 30.9415 22.3524 31.2939 22.7871 31.2939C23.2218 31.2939 23.5742 30.9415 23.5742 30.5068ZM30.5068 51.4258C30.9415 51.4258 31.2939 51.7782 31.2939 52.2129C31.2939 52.6476 30.9415 53 30.5068 53H27.0254C24.2544 53 22 50.7456 22 47.9746V44.4932C22 44.0585 22.3524 43.7061 22.7871 43.7061C23.2218 43.7061 23.5742 44.0585 23.5742 44.4932V47.9746C23.5742 49.8776 25.1224 51.4258 27.0254 51.4258H30.5068ZM53 44.4932V47.9746C53 50.7456 50.7456 53 47.9746 53H44.4932C44.0585 53 43.7061 52.6476 43.7061 52.2129C43.7061 51.7782 44.0585 51.4258 44.4932 51.4258H47.9746C49.8776 51.4258 51.4258 49.8776 51.4258 47.9746V44.4932C51.4258 44.0585 51.7782 43.7061 52.2129 43.7061C52.6476 43.7061 53 44.0585 53 44.4932ZM53 27.0254V30.5068C53 30.9415 52.6476 31.2939 52.2129 31.2939C51.7782 31.2939 51.4258 30.9415 51.4258 30.5068V27.0254C51.4258 25.1224 49.8776 23.5742 47.9746 23.5742H44.4932C44.0585 23.5742 43.7061 23.2218 43.7061 22.7871C43.7061 22.3524 44.0585 22 44.4932 22H47.9746C50.7456 22 53 24.2544 53 27.0254ZM42.9319 44.912C43.2635 44.6057 43.284 44.0885 42.9777 43.7569C42.6713 43.4253 42.1542 43.4048 41.8226 43.7111C40.6426 44.801 39.1075 45.4013 37.4999 45.4013C35.8924 45.4013 34.3572 44.801 33.1772 43.7111C32.8456 43.4048 32.3285 43.4253 32.0222 43.7569C31.7159 44.0885 31.7364 44.6057 32.068 44.912C33.5509 46.2817 35.48 47.0361 37.4999 47.0361C39.5199 47.0361 41.4489 46.2817 42.9319 44.912ZM39.1348 33.6855V39.498C39.1348 40.6499 38.1977 41.5869 37.0459 41.5869H36.3799C35.9284 41.5869 35.5625 41.221 35.5625 40.7695C35.5625 40.3181 35.9284 39.9521 36.3799 39.9521H37.0459C37.2963 39.9521 37.5 39.7484 37.5 39.498V33.6855C37.5 33.2341 37.8659 32.8682 38.3174 32.8682C38.7688 32.8682 39.1348 33.2341 39.1348 33.6855ZM44.7656 35.9712V33.6401C44.7656 33.2138 44.42 32.8682 43.9937 32.8682C43.5673 32.8682 43.2217 33.2138 43.2217 33.6401V35.9712C43.2217 36.3975 43.5673 36.7432 43.9937 36.7432C44.42 36.7432 44.7656 36.3975 44.7656 35.9712ZM30.416 35.9712C30.416 36.3975 30.7616 36.7432 31.188 36.7432C31.6143 36.7432 31.96 36.3975 31.96 35.9712V33.6401C31.96 33.2138 31.6143 32.8682 31.188 32.8682C30.7616 32.8682 30.416 33.2138 30.416 33.6401V35.9712Z" fill="#2E3E5C"/>
</svg>
