<svg width="141" height="141" viewBox="0 0 141 141" fill="none" xmlns="http://www.w3.org/2000/svg">
<circle opacity="0.6" cx="70.4999" cy="70.5" r="45.2079" stroke="#97A0C3" stroke-width="2"/>
<circle opacity="0.2" cx="70.5" cy="70.5" r="69.5" stroke="#9FA5C0" stroke-width="2"/>
<path d="M75.1471 51.5896C72.3451 50.8907 69.3966 50.7908 66.5276 51.4102C66.3058 51.458 66.1649 51.6766 66.2128 51.8983C66.2606 52.12 66.4792 52.261 66.7009 52.2131C69.4485 51.62 72.2788 51.7178 74.971 52.3925C81.4092 54.0061 86.7681 58.8467 88.8092 65.1699C89.5986 67.6152 89.9339 70.2191 90.001 72.9479C90.0066 73.1747 90.195 73.354 90.4217 73.3484C90.6485 73.3428 90.8278 73.1545 90.8222 72.9277C90.7542 70.1614 90.4149 67.4906 89.606 64.9645C87.4864 58.3447 81.8854 53.2704 75.1471 51.5896Z" fill="#2E3E5C"/>
<path d="M64.4433 52.8323C64.6619 52.7719 64.7903 52.5458 64.73 52.3271C64.6697 52.1085 64.4435 51.9801 64.2248 52.0404C61.2244 52.8681 57.0037 55.7282 54.3952 59.5491C54.3942 59.5506 54.3932 59.5521 54.3922 59.5536C52.1018 63.0052 50.6661 67.3428 51.067 71.5518C51.0673 71.5558 51.0678 71.5598 51.0683 71.5638C51.1643 72.3323 51.3256 73.0994 51.4871 73.8675C51.8272 75.4851 52.1681 77.1066 51.9024 78.754C51.8662 78.9779 52.0185 79.1887 52.2424 79.2249C52.4664 79.261 52.6772 79.1087 52.7133 78.8848C52.9911 77.1628 52.6462 75.4831 52.3012 73.8032C52.1417 73.0262 51.9821 72.2492 51.8841 71.4679C51.5071 67.4907 52.8651 63.3416 55.0752 60.01C57.5844 56.3358 61.6476 53.6035 64.4433 52.8323Z" fill="#2E3E5C"/>
<path d="M69.8329 53.7499C74.9895 53.435 80.145 55.5395 83.6073 59.5712C83.7551 59.7433 83.7354 60.0026 83.5633 60.1504C83.3912 60.2982 83.1319 60.2785 82.9841 60.1064C79.6916 56.2723 74.7857 54.2696 69.8805 54.57C69.8788 54.5701 69.877 54.5702 69.8753 54.5703C63.6721 54.8704 57.8628 59.0786 55.726 64.9752C55.6487 65.1885 55.4132 65.2987 55.1999 65.2214C54.9867 65.1441 54.8764 64.9086 54.9537 64.6954C57.2047 58.4835 63.3049 54.0669 69.8329 53.7499Z" fill="#2E3E5C"/>
<path d="M84.8586 61.3655C84.7321 61.1772 84.4769 61.1271 84.2886 61.2536C84.1003 61.38 84.0502 61.6352 84.1767 61.8235C86.0961 64.6815 86.8897 67.7916 87.2034 71.4823C87.2227 71.7083 87.4215 71.876 87.6475 71.8568C87.8735 71.8375 88.0411 71.6388 88.0219 71.4127C87.7013 67.6413 86.8829 64.3797 84.8586 61.3655Z" fill="#2E3E5C"/>
<path d="M87.7473 73.1565C87.9737 73.1423 88.1687 73.3144 88.1829 73.5408C88.3377 76.0174 88.3391 78.8195 88.0651 80.8902C88.0354 81.1151 87.829 81.2732 87.6041 81.2435C87.3792 81.2137 87.221 81.0073 87.2508 80.7824C87.5149 78.7866 87.5163 76.044 87.363 73.592C87.3489 73.3656 87.521 73.1706 87.7473 73.1565Z" fill="#2E3E5C"/>
<path d="M55.1058 66.9645C55.159 66.744 55.0234 66.5221 54.8029 66.4689C54.5824 66.4156 54.3605 66.5512 54.3073 66.7717C54.0058 68.0203 53.8493 69.3029 53.8431 70.5867C53.8367 71.9099 54.0835 73.2016 54.3303 74.4937C54.5322 75.5507 54.7342 76.608 54.7977 77.6833C54.8812 79.0957 54.5841 80.5102 54.0707 81.8564C53.9899 82.0684 54.0962 82.3057 54.3081 82.3865C54.52 82.4673 54.7574 82.361 54.8382 82.1491C55.3809 80.7261 55.7098 79.1933 55.6177 77.6348C55.5546 76.5669 55.3526 75.5157 55.1508 74.465C54.9044 73.1828 54.6582 71.9012 54.6645 70.5907C54.6704 69.3708 54.8192 68.1515 55.1058 66.9645Z" fill="#2E3E5C"/>
<path d="M65.8828 57.8375C65.9674 58.048 65.8653 58.2872 65.6548 58.3717C61.3968 60.0817 58.1993 63.9404 57.547 68.4907C57.2744 70.3918 57.5689 72.2749 57.8632 74.1575C58.029 75.2177 58.1947 76.2777 58.2592 77.3407C58.3989 79.6456 58.1363 82.1774 56.6363 84.481C56.5125 84.6711 56.2581 84.7248 56.068 84.601C55.8779 84.4773 55.8241 84.2228 55.9479 84.0327C57.3146 81.934 57.5733 79.6028 57.4392 77.3904C57.3739 76.3118 57.2091 75.2395 57.0445 74.1679C56.7492 72.2452 56.4542 70.3247 56.7338 68.3742C57.4303 63.5156 60.8357 59.4218 65.3487 57.6094C65.5592 57.5249 65.7983 57.627 65.8828 57.8375Z" fill="#2E3E5C"/>
<path d="M80.3014 60.1759C76.9423 57.0296 72.0736 55.9315 67.6488 56.9021C67.4273 56.9507 67.2871 57.1697 67.3357 57.3912C67.3843 57.6128 67.6033 57.753 67.8248 57.7044C72.0148 56.7854 76.5992 57.8338 79.7399 60.7754C82.3871 63.2548 83.9243 66.8625 84.3267 70.7987C84.3498 71.0243 84.5514 71.1886 84.7771 71.1655C85.0027 71.1424 85.167 70.9408 85.1439 70.7151C84.7261 66.6279 83.124 62.8195 80.3014 60.1759Z" fill="#2E3E5C"/>
<path d="M85.058 72.6711C85.2836 72.648 85.4853 72.8121 85.5085 73.0378C85.8985 76.8356 85.7304 80.9377 85.1416 84.906C85.1083 85.1304 84.8994 85.2853 84.675 85.252C84.4506 85.2187 84.2957 85.0098 84.329 84.7854C84.9097 80.8723 85.0732 76.8399 84.6913 73.1217C84.6682 72.896 84.8323 72.6943 85.058 72.6711Z" fill="#2E3E5C"/>
<path d="M70.7388 59.3471C64.445 59.3471 59.3313 64.3682 59.3313 70.5762C59.3313 71.2393 59.3901 71.8891 59.5023 72.5209C59.542 72.7442 59.7552 72.8931 59.9785 72.8534C60.2019 72.8138 60.3508 72.6006 60.3111 72.3773C60.2073 71.7923 60.1527 71.1906 60.1527 70.5762C60.1527 64.8345 64.886 60.1685 70.7388 60.1685C73.3837 60.1685 75.8002 61.1218 77.655 62.697C77.8279 62.8438 78.0871 62.8227 78.2339 62.6498C78.3808 62.4769 78.3596 62.2177 78.1867 62.0709C76.188 60.3734 73.5843 59.3471 70.7388 59.3471Z" fill="#2E3E5C"/>
<path d="M79.107 63.6022C79.2707 63.4452 79.5307 63.4506 79.6877 63.6144C81.5003 65.5045 82.0805 68.4753 82.4644 70.9684C82.8968 73.7766 82.9628 76.5163 82.9628 77.7865C82.9628 78.0134 82.779 78.1972 82.5521 78.1972C82.3253 78.1972 82.1414 78.0134 82.1414 77.7865C82.1414 76.5368 82.076 73.8435 81.6525 71.0934C81.2961 68.7789 80.7823 65.9426 79.0948 64.1829C78.9378 64.0192 78.9433 63.7592 79.107 63.6022Z" fill="#2E3E5C"/>
<path d="M82.8586 80.1387C82.8766 79.9126 82.7079 79.7147 82.4818 79.6966C82.2557 79.6786 82.0578 79.8473 82.0397 80.0734C81.838 82.6033 81.5745 85.1305 81.0397 87.465C80.989 87.6861 81.1272 87.9064 81.3483 87.957C81.5694 88.0077 81.7897 87.8695 81.8404 87.6484C82.3892 85.2524 82.6563 82.6754 82.8586 80.1387Z" fill="#2E3E5C"/>
<path d="M60.1634 74.0325C60.386 73.9887 60.6019 74.1336 60.6458 74.3561C61.5142 78.7661 60.9143 82.7722 58.6146 86.2813C58.4902 86.4711 58.2356 86.5241 58.0459 86.3997C57.8562 86.2754 57.8032 86.0208 57.9275 85.8311C60.0913 82.5293 60.6736 78.7491 59.8398 74.5148C59.796 74.2923 59.9409 74.0763 60.1634 74.0325Z" fill="#2E3E5C"/>
<path d="M70.7388 62.0194C66.6533 62.0194 62.6454 65.1819 62.2363 69.1565C62.0572 70.8965 62.3088 72.6105 62.5605 74.3252C62.7803 75.8225 63.0001 77.3202 62.9334 78.8363C62.7806 82.3061 61.7625 85.1703 60.0132 87.5294C59.8781 87.7116 59.9163 87.9689 60.0985 88.104C60.2807 88.2391 60.5379 88.2009 60.673 88.0187C62.5284 85.5166 63.5947 82.4912 63.754 78.8725C63.8204 77.3632 63.5999 75.8702 63.3795 74.3782C63.1275 72.672 62.8757 70.9671 63.0534 69.2406C63.4128 65.749 67.0067 62.8408 70.7388 62.8408C72.4795 62.8408 76.9832 63.7834 78.4158 68.4503C79.3136 71.3749 79.5585 75.3328 79.341 79.178C79.1236 83.0228 78.4472 86.7 77.5377 89.058C77.4561 89.2696 77.5614 89.5074 77.7731 89.589C77.9847 89.6706 78.2225 89.5653 78.3041 89.3536C79.2556 86.8866 79.941 83.1163 80.1611 79.2244C80.3812 75.3331 80.1393 71.2655 79.2011 68.2092C77.6108 63.0288 72.6257 62.0194 70.7388 62.0194Z" fill="#2E3E5C"/>
<path d="M64.4182 86.282C64.6082 86.4059 64.6617 86.6604 64.5378 86.8504C64.2831 87.2409 64.0591 87.6494 63.835 88.058C63.6109 88.4666 63.3869 88.8752 63.1321 89.2658C63.0082 89.4558 62.7537 89.5093 62.5637 89.3854C62.3737 89.2615 62.3202 89.007 62.4441 88.817C62.6988 88.4266 62.9228 88.018 63.1469 87.6094C63.3709 87.2008 63.595 86.7922 63.8498 86.4016C63.9737 86.2116 64.2282 86.1581 64.4182 86.282Z" fill="#2E3E5C"/>
<path d="M67.935 66.2828C68.1235 66.1567 68.1742 65.9016 68.048 65.7131C67.9219 65.5246 67.6669 65.4739 67.4783 65.6001C65.8519 66.6879 64.8541 68.1837 64.8541 70.3751C64.8541 71.68 65.0853 72.7466 65.3224 73.8405C65.6772 75.4776 65.9178 77.1111 65.8746 78.7925C65.8221 80.8343 65.4226 82.7001 64.6546 84.4775C64.5647 84.6857 64.6605 84.9274 64.8688 85.0174C65.077 85.1074 65.3187 85.0115 65.4087 84.8033C66.2206 82.924 66.6407 80.9541 66.6957 78.8136C66.7407 77.0664 66.4933 75.3682 66.1254 73.6668C65.8877 72.5681 65.6756 71.5871 65.6756 70.3751C65.6756 68.4975 66.5015 67.2416 67.935 66.2828Z" fill="#2E3E5C"/>
<path d="M69.538 64.8398C71.2424 64.4923 73.0764 64.9216 74.4264 66.0143C76.8376 67.9659 77.1583 71.5252 77.4182 74.4093L77.4314 74.5563C77.7672 78.274 77.3828 81.8852 76.6085 85.5116C76.5612 85.7335 76.3429 85.8749 76.1211 85.8275C75.8993 85.7802 75.7578 85.5619 75.8052 85.3401C76.5679 81.768 76.9396 78.2428 76.6133 74.6302C76.6025 74.5105 76.5918 74.3892 76.5809 74.2665L76.5807 74.2647C76.3499 71.6583 76.0608 68.394 73.9096 66.6528C72.7554 65.7186 71.1725 65.3449 69.7021 65.6446C69.4799 65.6899 69.263 65.5465 69.2176 65.3242C69.1723 65.102 69.3158 64.8851 69.538 64.8398Z" fill="#2E3E5C"/>
<path d="M76.028 87.5553C76.084 87.3355 75.9512 87.1119 75.7313 87.056C75.5115 87 75.2879 87.1328 75.232 87.3527C74.9837 88.328 74.6011 89.2083 74.116 90.0188C73.9995 90.2134 74.0628 90.4656 74.2575 90.5821C74.4521 90.6986 74.7043 90.6353 74.8208 90.4407C75.3436 89.5672 75.7586 88.6135 76.028 87.5553Z" fill="#2E3E5C"/>
<path d="M74.0196 81.5951C74.2449 81.6217 74.4059 81.826 74.3792 82.0512C73.9913 85.3292 73.1156 88.2527 71.7104 90.7883C71.6004 90.9867 71.3505 91.0584 71.1521 90.9485C70.9537 90.8385 70.882 90.5885 70.9919 90.3901C72.3367 87.9635 73.1858 85.1462 73.5634 81.9547C73.5901 81.7294 73.7943 81.5684 74.0196 81.5951Z" fill="#2E3E5C"/>
<path d="M73.935 70.1597C73.6502 68.6383 72.3444 67.4744 70.7591 67.4744C68.6124 67.4744 67.1063 69.6382 67.637 71.6514C68.5351 75.205 68.6825 78.6298 68.0746 81.9284L68.0741 81.9308C67.5466 84.8925 66.5335 87.5568 65.1515 89.8145C65.0331 90.0079 65.0939 90.2608 65.2874 90.3792C65.4809 90.4976 65.7337 90.4368 65.8521 90.2433C67.2906 87.8933 68.3382 85.1318 68.8826 82.0761C69.5138 78.6502 69.3575 75.1053 68.4329 71.448L68.4318 71.4437C68.0337 69.9378 69.1434 68.2959 70.7591 68.2959C71.9251 68.2959 72.9096 69.1537 73.127 70.3081C73.7248 73.7757 74.0362 76.9914 73.8145 79.76C73.7964 79.9861 73.965 80.1841 74.1911 80.2022C74.4172 80.2203 74.6152 80.0517 74.6333 79.8256C74.8631 76.9558 74.5388 73.661 73.936 70.1655C73.9357 70.1636 73.9353 70.1616 73.935 70.1597Z" fill="#2E3E5C"/>
<path d="M69.5335 87.9482C69.7353 88.0519 69.8148 88.2995 69.7111 88.5012L68.6228 90.6191C68.5192 90.8209 68.2716 90.9004 68.0698 90.7967C67.8681 90.693 67.7885 90.4454 67.8922 90.2437L68.9805 88.1258C69.0842 87.924 69.3318 87.8445 69.5335 87.9482Z" fill="#2E3E5C"/>
<path d="M71.0646 70.5558C71.0127 70.335 70.7916 70.198 70.5708 70.2499C70.35 70.3017 70.213 70.5228 70.2649 70.7436C71.65 76.6395 71.4597 81.8166 69.7727 86.2269C69.6916 86.4387 69.7977 86.6762 70.0095 86.7572C70.2214 86.8383 70.4588 86.7322 70.5399 86.5203C72.2989 81.9219 72.4777 76.5713 71.0646 70.5558Z" fill="#2E3E5C"/>
</svg>
