<svg width="60" height="60" viewBox="0 0 60 60" fill="none" xmlns="http://www.w3.org/2000/svg">
<path d="M44.4668 21.659C48.8446 24.427 54.2077 26.0556 59.9999 26.0556V16.1971C58.9036 16.1973 57.8103 16.0961 56.7378 15.8951V23.6552C50.946 23.6552 45.5836 22.0267 41.2049 19.259V39.3775C41.2049 49.442 31.9806 57.6001 20.6028 57.6001C16.3574 57.6001 12.4114 56.4649 9.13354 54.5179C12.8747 57.9015 18.0921 60.0003 23.8639 60.0003C35.2427 60.0003 44.4672 51.8422 44.4672 41.7773V21.659H44.4668V21.659ZM48.4911 11.713C46.2537 9.55107 44.7846 6.75717 44.4668 3.66833V2.40039H41.3755C42.1537 6.32616 44.8078 9.68008 48.4909 11.713H48.4911ZM16.33 46.795C15.08 45.3454 14.4043 43.5719 14.4074 41.7485C14.4074 37.1455 18.6265 33.4133 23.8318 33.4133C24.8018 33.4128 25.766 33.5446 26.6906 33.8038V23.7249C25.6101 23.594 24.5197 23.5382 23.4299 23.5587V31.4036C22.5048 31.1442 21.5401 31.0125 20.5697 31.0133C15.3646 31.0133 11.1457 34.7451 11.1457 39.3487C11.1457 42.6039 13.2544 45.4221 16.33 46.795Z" fill="#FF004F"/>
<path d="M41.205 19.2588C45.584 22.0265 50.9459 23.655 56.738 23.655V15.8949C53.5049 15.2857 50.6429 13.7915 48.491 11.713C44.8077 9.67987 42.1538 6.32595 41.3757 2.40039H33.256V41.7769C33.2375 46.3675 29.0256 50.0844 23.8315 50.0844C20.771 50.0844 18.0517 48.794 16.3297 46.7947C13.2546 45.4221 11.1456 42.6037 11.1456 39.3489C11.1456 34.7457 15.3645 31.0135 20.5696 31.0135C21.5669 31.0135 22.5281 31.1508 23.4298 31.4038V23.5589C12.2517 23.7632 3.26196 31.8417 3.26196 41.7771C3.26196 46.7369 5.50054 51.233 9.13392 54.5183C12.4117 56.4649 16.3576 57.6005 20.6031 57.6005C31.9812 57.6005 41.2053 49.4418 41.2053 39.3775V19.259H41.205V19.2588Z" fill="black"/>
<path d="M56.7379 15.8943V13.7965C53.8224 13.8004 50.9645 13.0783 48.4909 11.7126C50.6805 13.8328 53.5637 15.2949 56.7379 15.8947V15.8943ZM41.3754 2.39981C41.3012 2.02472 41.2443 1.64712 41.2047 1.26794V0H29.9933V39.377C29.9755 43.9671 25.7637 47.684 20.5693 47.684C19.0968 47.6859 17.6443 47.3813 16.3294 46.7948C18.0514 48.7937 20.7706 50.0838 23.8312 50.0838C29.0251 50.0838 33.2374 46.3673 33.2557 41.7768V2.40001H41.3754V2.39981ZM23.4302 23.5583V21.3247C22.4933 21.2114 21.5489 21.1547 20.6033 21.155C9.22408 21.155 0 29.3135 0 39.377C0 45.6863 3.62518 51.2468 9.13408 54.5175C5.5007 51.2325 3.26212 46.7361 3.26212 41.7766C3.26212 31.8413 12.2516 23.7629 23.4302 23.5586V23.5583Z" fill="#00F2EA"/>
</svg>
