<svg width="60" height="60" viewBox="0 0 60 60" fill="none" xmlns="http://www.w3.org/2000/svg">
<path d="M15.8582 51.5673L16.839 52.0538C20.9265 54.4862 25.504 55.6213 30.0817 55.6213C44.4686 55.6213 56.2397 43.9457 56.2397 29.6754C56.2397 22.8647 53.4603 16.216 48.5558 11.3511C43.6511 6.48614 37.1115 3.72949 30.0817 3.72949C15.6948 3.72949 3.92354 15.4051 4.08713 29.8377C4.08713 34.7024 5.55852 39.4053 8.01074 43.4591L8.66464 44.4323L6.04906 53.9999L15.8582 51.5673Z" fill="#00E676"/>
<path d="M51.3351 8.75674C45.7765 3.08118 38.0926 0 30.2452 0C13.5696 0 0.163591 13.4594 0.326948 29.8377C0.326948 35.027 1.79833 40.0542 4.25079 44.5946L0 60L15.8583 55.9459C20.2724 58.3785 25.1769 59.5137 30.0818 59.5137C46.594 59.5137 60 46.054 60 29.6759C60 21.7298 56.8936 14.2703 51.3353 8.75674H51.3351ZM30.2452 54.4867C25.831 54.4867 21.4169 53.3518 17.6566 51.0815L16.6758 50.5949L7.19356 53.0272L9.64579 43.7842L8.99189 42.811C1.79833 31.2977 5.23164 16.054 17.0027 8.91877C28.7738 1.78376 43.9781 5.18923 51.1717 16.8649C58.365 28.5405 54.9317 43.6217 43.1609 50.7569C39.4004 53.1893 34.8229 54.4865 30.2452 54.4865V54.4867ZM44.632 36.4869L42.8337 35.676C42.8337 35.676 40.2181 34.5409 38.5831 33.73C38.4196 33.73 38.2562 33.5677 38.0926 33.5677C37.6021 33.5677 37.2751 33.73 36.9482 33.8923C36.9482 33.8923 36.7848 34.0543 34.4959 36.6489C34.3324 36.9732 34.0054 37.1355 33.6785 37.1355H33.5149C33.3515 37.1355 33.0246 36.9732 32.861 36.8112L32.0435 36.4869C30.2452 35.676 28.6104 34.7029 27.3024 33.4057C26.9754 33.0814 26.4849 32.7571 26.158 32.4328C25.0135 31.2977 23.8691 30.0002 23.0518 28.5408L22.8882 28.2165C22.7249 28.0542 22.7249 27.8922 22.5613 27.5679C22.5613 27.2436 22.5613 26.9193 22.7249 26.757C22.7249 26.757 23.3788 25.9462 23.8691 25.4598C24.1963 25.1353 24.3596 24.649 24.6866 24.3247C25.0135 23.8381 25.1771 23.1895 25.0135 22.7029C24.8502 21.8921 22.8882 17.5137 22.3979 16.5408C22.0707 16.0543 21.744 15.8922 21.2535 15.73H19.4552C19.128 15.73 18.8013 15.8922 18.4741 15.8922L18.3105 16.0543C17.9835 16.2165 17.6566 16.5408 17.3297 16.7029C17.0027 17.0274 16.8391 17.3515 16.5122 17.676C15.3677 19.1354 14.7138 20.9192 14.7138 22.7029C14.7138 24.0001 15.0408 25.2976 15.5313 26.4327L15.6949 26.9193C17.1663 30.0002 19.128 32.7571 21.744 35.1895L22.3979 35.8381C22.8882 36.3246 23.3788 36.6489 23.7057 37.1353C27.139 40.0544 31.0626 42.1624 35.4768 43.2976C35.9673 43.4596 36.6212 43.4596 37.1118 43.6219H38.7465C39.564 43.6219 40.5448 43.2976 41.199 42.9733C41.6893 42.649 42.0162 42.649 42.3432 42.3247L42.6703 42.0002C42.9973 41.6759 43.3242 41.5139 43.6512 41.1896C43.9781 40.8653 44.3051 40.541 44.4687 40.2164C44.7956 39.5678 44.959 38.757 45.1226 37.9463V36.8112C45.1226 36.8112 44.959 36.6489 44.632 36.4869V36.4869Z" fill="white"/>
</svg>
